<svg width="24" height="25" viewBox="0 0 24 25" fill="none" xmlns="http://www.w3.org/2000/svg">
<path d="M4 22.4336V16.5086C4 16.1753 4.07933 15.8586 4.238 15.5586C4.39667 15.2586 4.61733 15.0169 4.9 14.8336L6 14.1086C6.11667 15.5086 6.3 16.7003 6.55 17.6836C6.8 18.6669 7.19167 19.7586 7.725 20.9586L4 22.4336ZM9.225 20.4336C8.64167 19.3336 8.20833 18.1669 7.925 16.9336C7.64167 15.7003 7.5 14.4253 7.5 13.1086C7.5 11.0253 7.91267 9.06293 8.738 7.2216C9.56333 5.38027 10.6507 3.98427 12 3.0336C13.35 3.9836 14.4377 5.3796 15.263 7.2216C16.0883 9.0636 16.5007 11.0259 16.5 13.1086C16.5 14.4086 16.3583 15.6713 16.075 16.8966C15.7917 18.1219 15.3583 19.3009 14.775 20.4336H9.225ZM12 13.4336C12.55 13.4336 13.021 13.2379 13.413 12.8466C13.805 12.4553 14.0007 11.9843 14 11.4336C13.9993 10.8829 13.8037 10.4123 13.413 10.0216C13.0223 9.63093 12.5513 9.43493 12 9.4336C11.4487 9.43227 10.978 9.62827 10.588 10.0216C10.198 10.4149 10.002 10.8856 10 11.4336C9.998 11.9816 10.194 12.4526 10.588 12.8466C10.982 13.2406 11.4527 13.4363 12 13.4336ZM20 22.4336L16.275 20.9586C16.8083 19.7586 17.2 18.6669 17.45 17.6836C17.7 16.7003 17.8833 15.5086 18 14.1086L19.1 14.8336C19.3833 15.0169 19.6043 15.2586 19.763 15.5586C19.9217 15.8586 20.0007 16.1753 20 16.5086V22.4336Z" fill="#2E5CFF"/>
</svg>
