<svg width="24" height="25" viewBox="0 0 24 25" fill="none" xmlns="http://www.w3.org/2000/svg">
<path d="M15.9171 19.1816H10.1445C9.65242 19.1816 9.18048 18.9531 8.83251 18.5463C8.48455 18.1396 8.28906 17.5879 8.28906 17.0126V10.2646C8.28906 9.68937 8.48455 9.13768 8.83251 8.73091C9.18048 8.32415 9.65242 8.09563 10.1445 8.09563H15.9171C16.4092 8.09563 16.8811 8.32415 17.2291 8.73091C17.577 9.13768 17.7725 9.68937 17.7725 10.2646V17.0126C17.7725 17.5879 17.577 18.1396 17.2291 18.5463C16.8811 18.9531 16.4092 19.1816 15.9171 19.1816Z" fill="white"/>
<path d="M9.52613 7.13159H15.6048C15.4765 6.70901 15.2395 6.34318 14.9263 6.08429C14.6132 5.8254 14.2391 5.68613 13.8555 5.68559H8.083C7.5909 5.68559 7.11896 5.91411 6.77099 6.32088C6.42302 6.72764 6.22754 7.27933 6.22754 7.85459V14.6026C6.228 15.051 6.34714 15.4882 6.5686 15.8543C6.79007 16.2204 7.10302 16.4975 7.46451 16.6475V9.54158C7.46451 8.90241 7.68172 8.28942 8.06834 7.83746C8.45497 7.3855 8.97935 7.13159 9.52613 7.13159Z" fill="white"/>
</svg>
