<svg width="25" height="25" viewBox="0 0 25 25" fill="none" xmlns="http://www.w3.org/2000/svg">
<path d="M11.438 3.0016C12.065 2.5216 12.9365 2.5216 13.5635 3.0016L21.0065 8.6911C21.9545 9.4156 21.446 10.9276 20.255 10.9336H4.745C3.5555 10.9276 3.0455 9.4156 3.995 8.6911L11.438 3.0016ZM12.5 8.3086C12.7984 8.3086 13.0845 8.19007 13.2955 7.9791C13.5065 7.76812 13.625 7.48197 13.625 7.1836C13.625 6.88523 13.5065 6.59908 13.2955 6.38811C13.0845 6.17713 12.7984 6.0586 12.5 6.0586C12.2016 6.0586 11.9155 6.17713 11.7045 6.38811C11.4935 6.59908 11.375 6.88523 11.375 7.1836C11.375 7.48197 11.4935 7.76812 11.7045 7.9791C11.9155 8.19007 12.2016 8.3086 12.5 8.3086ZM5.75 12.4336V16.9336H8V12.4336H5.75ZM9.5 12.4336V16.9336H11.75V12.4336H9.5ZM13.25 12.4336V16.9336H15.5V12.4336H13.25ZM17 12.4336V16.9336H19.25V12.4336H17ZM3.5 20.3086C3.5 19.2736 4.34 18.4336 5.375 18.4336H19.625C20.66 18.4336 21.5 19.2736 21.5 20.3086V20.6836C21.5 20.8825 21.421 21.0733 21.2803 21.2139C21.1397 21.3546 20.9489 21.4336 20.75 21.4336H4.25C4.05109 21.4336 3.86032 21.3546 3.71967 21.2139C3.57902 21.0733 3.5 20.8825 3.5 20.6836V20.3086Z" fill="#A19FB7"/>
</svg>
