<svg width="24" height="25" viewBox="0 0 24 25" fill="none" xmlns="http://www.w3.org/2000/svg">
  <g clip-path="url(#clip0_1_1504)">
    <path d="M3.9901 11.1796L6.6681 12.9836C8.1321 13.9696 7.1551 16.2516 5.4311 15.8736L5.3231 15.8496C5.93802 17.05 6.86512 18.0626 8.00686 18.7806C9.1486 19.4987 10.4628 19.8957 11.8111 19.93C13.1594 19.9643 14.4921 19.6346 15.6688 18.9754C16.8456 18.3163 17.823 17.3522 18.4981 16.1846C18.6992 15.8448 19.0261 15.598 19.408 15.4978C19.7899 15.3975 20.1959 15.4518 20.538 15.649C20.8801 15.8462 21.1306 16.1703 21.2353 16.551C21.34 16.9317 21.2903 17.3383 21.0971 17.6826C18.7801 21.7016 13.9781 23.8346 9.2821 22.5756C7.06269 21.9814 5.09945 20.6756 3.69342 18.8584C2.28739 17.0413 1.5162 14.8131 1.4981 12.5156C1.4881 11.2016 2.9481 10.4756 3.9901 11.1786M14.7181 2.29161C16.9375 2.88585 18.9007 4.19165 20.3068 6.00879C21.7128 7.82593 22.484 10.0541 22.5021 12.3516C22.5121 13.6656 21.0531 14.3916 20.0101 13.6886L17.3321 11.8836C15.8691 10.8976 16.8451 8.61561 18.5691 8.99361L18.6781 9.01761C18.063 7.81746 17.1358 6.80526 15.9942 6.08746C14.8525 5.36967 13.5384 4.97281 12.1903 4.93863C10.8421 4.90445 9.50967 5.23421 8.33307 5.89323C7.15648 6.55225 6.17922 7.51617 5.5041 8.68361C5.30545 9.02839 4.97798 9.28014 4.59371 9.38347C4.20945 9.4868 3.79988 9.43326 3.4551 9.23461C3.11032 9.03596 2.85857 8.70849 2.75524 8.32422C2.6519 7.93996 2.70545 7.53039 2.9041 7.18561C5.2201 3.16561 10.0221 1.03361 14.7181 2.29161Z" fill="#FFFFFF"/>
  </g>
  <defs>
    <clipPath id="clip0_1_1504">
      <rect width="24" height="24" fill="white" transform="translate(0 0.433594)"/>
    </clipPath>
  </defs>
</svg>