<svg width="25" height="25" viewBox="0 0 25 25" fill="none" xmlns="http://www.w3.org/2000/svg">
<path d="M22.4871 19.1636C22.441 19.4694 22.3246 19.7604 22.1471 20.0136C21.9704 20.2624 21.7364 20.465 21.4648 20.6043C21.1933 20.7435 20.8922 20.8153 20.5871 20.8136H18.9361C18.8186 20.8131 18.703 20.7848 18.5987 20.7309C18.4944 20.677 18.4044 20.5991 18.3361 20.5036C18.2669 20.4081 18.2209 20.2979 18.2018 20.1816C18.1828 20.0653 18.191 19.9461 18.2261 19.8336C18.5961 18.6536 18.5161 17.3236 15.1651 15.1936C15.0285 15.1041 14.9239 14.9736 14.8664 14.8208C14.8089 14.668 14.8014 14.5009 14.8451 14.3436C14.8919 14.1886 14.987 14.0527 15.1165 13.9555C15.246 13.8584 15.4032 13.8052 15.5651 13.8036C16.9952 13.8235 18.3909 14.2459 19.5921 15.0223C20.7933 15.7987 21.7516 16.8978 22.3571 18.1936C22.4801 18.5012 22.5247 18.8345 22.4871 19.1636ZM19.9861 8.13359C19.9834 9.3052 19.5168 10.4281 18.6882 11.2564C17.8596 12.0848 16.7367 12.5512 15.5651 12.5536C15.4339 12.5509 15.3057 12.5144 15.1928 12.4476C15.08 12.3808 14.9863 12.2859 14.9209 12.1722C14.8555 12.0585 14.8206 11.9298 14.8195 11.7987C14.8185 11.6675 14.8514 11.5383 14.9151 11.4236C15.5273 10.4446 15.8519 9.31322 15.8519 8.15859C15.8519 7.00395 15.5273 5.87257 14.9151 4.89359C14.8366 4.7815 14.7903 4.65009 14.7812 4.51359C14.7721 4.37709 14.8005 4.24069 14.8633 4.11916C14.9261 3.99763 15.021 3.8956 15.1376 3.82411C15.2543 3.75263 15.3883 3.7144 15.5251 3.71359C16.1106 3.71162 16.6903 3.82949 17.2286 4.05994C17.7669 4.29039 18.2523 4.62854 18.6551 5.05359C19.4777 5.8842 19.9412 7.00458 19.9461 8.17359L19.9861 8.13359Z" fill="#2e5cff"/>
<path d="M17.1751 19.1336C17.2156 19.6232 17.1193 20.1144 16.8968 20.5523C16.6743 20.9903 16.3344 21.3577 15.9151 21.6136C15.4971 21.8706 15.0151 22.0056 14.5251 22.0036H5.15206C4.66142 22.0058 4.17996 21.8707 3.76206 21.6136C3.34187 21.3592 3.00167 20.9917 2.78029 20.5532C2.55891 20.1147 2.46527 19.6228 2.51006 19.1336C2.5474 18.6457 2.7206 18.1781 3.01006 17.7836C3.80696 16.7224 4.83378 15.8553 6.01352 15.2474C7.19327 14.6395 8.49532 14.3066 9.82206 14.2736C11.1533 14.2997 12.4612 14.6283 13.6466 15.2347C14.832 15.8411 15.8639 16.7093 16.6641 17.7736C16.9551 18.1718 17.1325 18.6422 17.1751 19.1336ZM14.7451 7.7536C14.7424 9.05362 14.2254 10.2998 13.3069 11.2198C12.3884 12.1398 11.1431 12.6589 9.84306 12.6636C9.11923 12.6618 8.40478 12.4998 7.751 12.1892C7.09722 11.8785 6.52032 11.427 6.06173 10.867C5.60315 10.307 5.27424 9.65234 5.09863 8.95014C4.92302 8.24794 4.90507 7.51557 5.04606 6.8056C5.18764 6.09547 5.48485 5.42553 5.91632 4.844C6.34779 4.26247 6.90278 3.78379 7.54137 3.44241C8.17996 3.10102 8.88628 2.90542 9.60951 2.86966C10.3327 2.8339 11.0549 2.95888 11.7241 3.2356C12.6188 3.60531 13.384 4.23168 13.9233 5.03573C14.4625 5.83977 14.7516 6.78549 14.7541 7.7536H14.7451Z" fill="#2e5cff"/>
</svg>
