<svg width="25" height="25" viewBox="0 0 25 25" fill="none" xmlns="http://www.w3.org/2000/svg">
<path d="M13.207 2.72659L22.207 11.7266C22.837 12.3566 22.391 13.4336 21.5 13.4336H20.5V19.4336C20.5 20.2292 20.184 20.9923 19.6214 21.5549C19.0588 22.1175 18.2957 22.4336 17.5 22.4336H16.5V15.4336C16.5001 14.6684 16.2077 13.9321 15.6828 13.3753C15.1578 12.8186 14.4399 12.4835 13.676 12.4386L13.5 12.4336H11.5C10.7044 12.4336 9.94133 12.7497 9.37872 13.3123C8.81611 13.8749 8.50004 14.6379 8.50004 15.4336V22.4336H7.50004C6.70439 22.4336 5.94133 22.1175 5.37872 21.5549C4.81611 20.9923 4.50004 20.2292 4.50004 19.4336V13.4336H3.50004C2.61004 13.4336 2.16304 12.3566 2.79304 11.7266L11.793 2.72659C11.9806 2.53912 12.2349 2.43381 12.5 2.43381C12.7652 2.43381 13.0195 2.53912 13.207 2.72659ZM13.5 14.4336C13.7653 14.4336 14.0196 14.539 14.2071 14.7265C14.3947 14.914 14.5 15.1684 14.5 15.4336V22.4336H10.5V15.4336C10.5001 15.1887 10.59 14.9523 10.7528 14.7692C10.9155 14.5862 11.1398 14.4693 11.383 14.4406L11.5 14.4336H13.5Z" fill="#2e5cff"/>
</svg>
