<svg width="25" height="25" viewBox="0 0 25 25" fill="none" xmlns="http://www.w3.org/2000/svg">
<path d="M19.5 4.43359C20.0304 4.43359 20.5391 4.64431 20.9142 5.01938C21.2893 5.39445 21.5 5.90316 21.5 6.43359V7.43359H15.5C14.1739 7.43359 12.9021 7.96038 11.9645 8.89806C11.0268 9.83574 10.5 11.1075 10.5 12.4336C10.5 13.7597 11.0268 15.0314 11.9645 15.9691C12.9021 16.9068 14.1739 17.4336 15.5 17.4336H21.5V18.4336C21.5 18.964 21.2893 19.4727 20.9142 19.8478C20.5391 20.2229 20.0304 20.4336 19.5 20.4336H5.5C4.96957 20.4336 4.46086 20.2229 4.08579 19.8478C3.71071 19.4727 3.5 18.964 3.5 18.4336V6.43359C3.5 5.90316 3.71071 5.39445 4.08579 5.01938C4.46086 4.64431 4.96957 4.43359 5.5 4.43359H19.5ZM20.5 9.43359C21.0304 9.43359 21.5391 9.64431 21.9142 10.0194C22.2893 10.3945 22.5 10.9032 22.5 11.4336V13.4336C22.5 13.964 22.2893 14.4727 21.9142 14.8478C21.5391 15.2229 21.0304 15.4336 20.5 15.4336H15.5C14.7044 15.4336 13.9413 15.1175 13.3787 14.5549C12.8161 13.9923 12.5 13.2292 12.5 12.4336C12.5 11.6379 12.8161 10.8749 13.3787 10.3123C13.9413 9.74966 14.7044 9.43359 15.5 9.43359H20.5ZM15.5 11.4336C15.2348 11.4336 14.9804 11.539 14.7929 11.7265C14.6054 11.914 14.5 12.1684 14.5 12.4336C14.5 12.6988 14.6054 12.9532 14.7929 13.1407C14.9804 13.3282 15.2348 13.4336 15.5 13.4336C15.7652 13.4336 16.0196 13.3282 16.2071 13.1407C16.3946 12.9532 16.5 12.6988 16.5 12.4336C16.5 12.1684 16.3946 11.914 16.2071 11.7265C16.0196 11.539 15.7652 11.4336 15.5 11.4336Z" fill="#A19FB7"/>
</svg>
