<svg width="25" height="25" viewBox="0 0 25 25" fill="none" xmlns="http://www.w3.org/2000/svg">
<path d="M19.2453 4.18359V1.93359H5.75V4.18359H2V5.96484C2 7.46484 2.44531 8.90812 3.25437 10.0247C3.87922 10.8872 4.85609 11.4825 5.73453 11.7689C5.98953 13.1419 6.68141 14.4469 8.08719 15.5109C9.11844 16.2919 10.3583 16.8642 11.4688 17.0981V20.8711H8V22.9336H17V20.8711H13.5312V17.0981C14.6417 16.8638 15.8811 16.2919 16.9128 15.5109C18.3191 14.4469 19.0105 13.1419 19.2655 11.7689C20.1439 11.4825 21.1208 10.8872 21.7456 10.0247C22.5547 8.90812 23 7.46484 23 5.96484V4.18359H19.2453ZM4.925 8.81484C4.42438 8.12672 4.12016 7.20234 4.07 6.24609H5.75V9.40406C5.56531 9.35062 5.14438 9.11719 4.925 8.81484ZM20.075 8.81484C19.8594 9.12469 19.5312 9.40453 19.25 9.40453C19.25 8.35453 19.25 7.23469 19.2477 6.24609H20.9305C20.8798 7.20234 20.5625 8.11641 20.075 8.81484Z" fill="#A19FB7"/>
</svg>
