<svg width="24" height="25" viewBox="0 0 24 25" fill="none" xmlns="http://www.w3.org/2000/svg">
<path fill-rule="evenodd" clip-rule="evenodd" d="M14.279 2.58559C13.909 2.43359 13.439 2.43359 12.5 2.43359C11.561 2.43359 11.092 2.43359 10.721 2.58559C10.2285 2.7878 9.83639 3.17736 9.63101 3.66859C9.53701 3.89159 9.50101 4.15259 9.48601 4.53159C9.47934 4.8062 9.40274 5.07456 9.26346 5.31131C9.12417 5.54806 8.9268 5.74538 8.69001 5.88459C8.44875 6.0187 8.17755 6.08974 7.90154 6.09114C7.62552 6.09254 7.35361 6.02425 7.11101 5.89259C6.77301 5.71459 6.52801 5.61659 6.28601 5.58459C5.75656 5.51508 5.22108 5.65739 4.79601 5.98059C4.47801 6.22259 4.24301 6.62659 3.77401 7.43359C3.30401 8.24059 3.07001 8.64359 3.01701 9.03859C2.94701 9.56459 3.09101 10.0966 3.41701 10.5176C3.56501 10.7096 3.77401 10.8706 4.09701 11.0726C4.57401 11.3696 4.88001 11.8756 4.88001 12.4336C4.88001 12.9916 4.57401 13.4976 4.09801 13.7936C3.77401 13.9966 3.56501 14.1576 3.41601 14.3496C3.25509 14.5575 3.13698 14.7953 3.06849 15.0492C3.00001 15.303 2.98251 15.5679 3.01701 15.8286C3.07001 16.2226 3.30401 16.6266 3.77401 17.4336C4.24401 18.2406 4.47801 18.6436 4.79601 18.8866C5.22001 19.2096 5.75601 19.3516 6.28601 19.2826C6.52801 19.2506 6.77301 19.1526 7.11101 18.9746C7.35374 18.8428 7.62583 18.7744 7.90204 18.7758C8.17825 18.7772 8.44963 18.8483 8.69101 18.9826C9.17701 19.2626 9.46501 19.7776 9.48601 20.3356C9.50101 20.7156 9.53701 20.9756 9.63101 21.1986C9.83501 21.6886 10.227 22.0786 10.721 22.2816C11.091 22.4336 11.561 22.4336 12.5 22.4336C13.439 22.4336 13.909 22.4336 14.279 22.2816C14.7716 22.0794 15.1636 21.6898 15.369 21.1986C15.463 20.9756 15.499 20.7156 15.514 20.3356C15.534 19.7776 15.823 19.2616 16.31 18.9826C16.5513 18.8485 16.8225 18.7774 17.0985 18.7761C17.3745 18.7747 17.6464 18.8429 17.889 18.9746C18.227 19.1526 18.472 19.2506 18.714 19.2826C19.244 19.3526 19.78 19.2096 20.204 18.8866C20.522 18.6446 20.757 18.2406 21.226 17.4336C21.696 16.6266 21.93 16.2236 21.983 15.8286C22.0174 15.5679 21.9997 15.3029 21.9311 15.0491C21.8624 14.7952 21.7441 14.5575 21.583 14.3496C21.435 14.1576 21.226 13.9966 20.903 13.7946C20.426 13.4976 20.12 12.9916 20.12 12.4336C20.12 11.8756 20.426 11.3696 20.902 11.0736C21.226 10.8706 21.435 10.7096 21.584 10.5176C21.7449 10.3097 21.863 10.0719 21.9315 9.81802C22 9.56417 22.0175 9.29925 21.983 9.03859C21.93 8.64459 21.696 8.24059 21.226 7.43359C20.756 6.62659 20.522 6.22359 20.204 5.98059C19.7789 5.65739 19.2435 5.51508 18.714 5.58459C18.472 5.61659 18.227 5.71459 17.889 5.89259C17.6463 6.02442 17.3742 6.09281 17.098 6.09141C16.8218 6.09001 16.5504 6.01887 16.309 5.88459C16.0724 5.74525 15.8752 5.54789 15.7361 5.31115C15.597 5.0744 15.5206 4.8061 15.514 4.53159C15.499 4.15159 15.463 3.89159 15.369 3.66859C15.2674 3.42533 15.1188 3.20448 14.9318 3.01865C14.7447 2.83283 14.5229 2.68567 14.279 2.58559ZM12.5 15.4336C14.17 15.4336 15.523 14.0906 15.523 12.4336C15.523 10.7766 14.169 9.43359 12.5 9.43359C10.83 9.43359 9.47701 10.7766 9.47701 12.4336C9.47701 14.0906 10.831 15.4336 12.5 15.4336Z" fill="#A19FB7"/>
</svg>
