<svg width="44" height="44" viewBox="0 0 44 44" fill="none" xmlns="http://www.w3.org/2000/svg">
<g clip-path="url(#clip0_27_17)">
<path d="M42.832 22C42.832 10.4922 33.5078 1.16797 22 1.16797C10.4922 1.16797 1.16797 10.4922 1.16797 22C1.16797 33.5078 10.4922 42.832 22 42.832C33.5078 42.832 42.832 33.5078 42.832 22Z" stroke="#A39FB3" stroke-width="2.08333" stroke-linecap="square"/>
<path d="M22 42.832C27.5547 37.7812 30.332 30.8398 30.332 22C30.332 13.1602 27.5547 6.21875 22 1.16797C16.4453 6.21875 13.668 13.1602 13.668 22C13.668 30.8398 16.4453 37.7812 22 42.832Z" stroke="#A39FB3" stroke-width="2.08333" stroke-linecap="round"/>
<path d="M2.20703 15.75H41.793M2.20703 28.25H41.793" stroke="#A39FB3" stroke-width="2.08333" stroke-linecap="round"/>
</g>
<defs>
<clipPath id="clip0_27_17">
<rect width="44" height="44" fill="white"/>
</clipPath>
</defs>
</svg>
